<?xml version="1.0" encoding="utf-8"?>
<!-- Generator: Adobe Illustrator 21.1.0, SVG Export Plug-In . SVG Version: 6.00 Build 0)  -->
<svg version="1.1" id="Capa_1" xmlns="http://www.w3.org/2000/svg" xmlns:xlink="http://www.w3.org/1999/xlink" x="0px" y="0px"
	 viewBox="214 392 112 27" style="enable-background:new 214 392 112 27;" xml:space="preserve">
<style type="text/css">
	.st0{fill:#676766;}
	.st1{fill:none;stroke:#FFFFFF;stroke-width:2;stroke-miterlimit:10;}
	.st2{fill:#FFFFFF;}
	.st3{fill:#1A1A1A;}
	.st4{fill:#080608;}
	.st5{fill:none;stroke:#676766;stroke-width:2;stroke-miterlimit:10;}
	.st6{fill:none;stroke:#1A1A1A;stroke-width:2;stroke-miterlimit:10;}
	.st7{fill:none;}
</style>
<g>
	<path class="st2" d="M246.2,392h-10.1c0.9,0.7,1.4,1.8,1.4,3.1v20.9h0c0,1.2-0.5,2.3-1.4,3.1h10.1c-0.9-0.7-1.4-1.8-1.4-3.1v-20.9
		h0C244.8,393.8,245.3,392.7,246.2,392z"/>
	<path class="st2" d="M313.9,419c0,0,11.4,0,11.4,0c-0.5,0-0.9-0.7-1.1-1c-1.9-2.5-2.9-5.6-3.8-8.6c-1-3.3-2.2-6.6-3.2-9.8
		c-0.6-2-1.3-3.9-2-5.8c-0.2-0.6-0.4-1.2-0.6-1.7h-8.9c0.6,0.5,1,1.1,1.2,1.9c0,0,0.2,1.1-0.4,2.6c-0.6,1.5-4.9,14.2-4.9,14.2
		s-2.2,7.3-4,8.3h7.6c0,0-1.9-1.6-0.9-4.5l1.4-3.5h7.8C313.5,411,316.9,416.6,313.9,419z M306.6,407.5l2.5-7.2l0.2-0.7l0.3-0.8
		l3.2,8.7H306.6z"/>
	<path class="st2" d="M229,415.4L229,415.4l-2.6,0c-1.4,0-2.3-0.2-3-0.6v-19.7h0c0-1.2,0.5-2.3,1.4-3.1h-10.1
		c0.9,0.7,1.4,1.8,1.4,3.1v20.9h0c0,1.2-0.5,2.3-1.4,3.1h17.4l0.9-5C232.2,414.8,230.2,415.4,229,415.4z"/>
	<path class="st2" d="M293.6,415.4L293.6,415.4l-2.6,0c-1.4,0-2.3-0.2-3-0.6v-8.2h1.9v0c1.2,0,2.3,0.5,3.1,1.4v-5h-5v-7.4h3.4v0
		c1.2,0,2.3,0.5,3.1,1.4v-5h-5h-5.8h-4.3c0.9,0.7,1.4,1.8,1.4,3.1v20.9h0c0,1.2-0.5,2.3-1.4,3.1h17.4l0.9-5
		C296.8,414.8,294.8,415.4,293.6,415.4z"/>
	<path class="st2" d="M266.9,395.1v9.5l-9.6-12.6h-7.4c0.9,0.7,1.4,1.8,1.4,3.1v20.9h0c0,1.2-0.5,2.3-1.4,3.1h7.4
		c-0.9-0.7-1.4-1.8-1.4-3.1v-13.4c4.6,6.6,8.2,10.6,11,13c0.9,0.8,1.7,1.4,2.5,1.9c0,0,0,0,0,0c2.4,1.6,3.6,1.6,3.6,1.6h1.3v-23.9h0
		c0-1.2,0.5-2.3,1.4-3.1h-10.1C266.3,392.7,266.9,393.8,266.9,395.1z"/>
</g>
</svg>
